<svg xmlns="http://www.w3.org/2000/svg" width="370" height="260" viewBox="0 0 373 260"><path d="M106.6 115.9c15.9-47.8 26.5-71.8 31.8-71.8l2.1.2c2.5.2 5.3-.9 8.4-3 4.2-3.5 9-6.2 14.1-7.9 5.1-1.8 10.4-2.5 15.8-2.1 12 1.1 19.6 7.4 22.7 18.9v.7c-.7 1.8-1.4 3.6-2.3 5.4h.9c-4.5 5.8-8.2 12.1-11.2 18.8l-8.2 18c-1.9 4.3-4.5 9.7-7.9 16.2s-7.4 14.6-11.8 24.1-9 19-13.9 28.3c-9.2 19-20.8 36.7-34.4 52.8a28.97 28.97 0 01-35.6 7c-4-2.1-7.2-5.4-9.1-9.4l-4.9-14.6c-2 1.7-4.4 3.9-7 6.5l-8.4 8.2c-6.9 6.5-12.2 10-15.9 10.3-3.2.3-6.4.4-9.6.1-2.6-.2-5.1-.8-7.5-1.8-5.3-2-8.7-5.9-10.3-11.7-2.7-26.6-1.3-60.7 4-102.2C9.8 96.8 11 86.8 12.1 77c2.6-13.9 7.6-23.8 15-29.9 6.2-5.3 12.3-6.9 18.2-4.7 2.5.8 4.7 2.5 6.1 4.7 1.4 2.4 1.9 5.2 1.4 7.9.3 7.1.2 14.2-.2 21.3-.6 5.8-.8 11.7-.7 17.5.2 3.1.1 6.1-.1 9.2l-.5 6.8c-.1 1.7 0 3.4.2 5.1.2 1.3.8 1.6 1.8.8 3.6-7.6 6.6-13.2 9.1-16.6l7.9-10.8c4.4-3.9 8.2-5.4 11.5-4.4 1.9.4 3.7 1 5.4 1.8 2.4 1 4.9 1.8 7.5 2.2 1.8 1.5 3.2 3.4 4 5.6l1.4 1.3c.4.4.8.9 1.1 1.4l1.2 3.6 1.8 6c.6 2.1 1.2 4.1 1.6 6.1.2 1.4.4 2.7.8 4zm5.6 97.9c0 .3 0 .4.1.1l.1-.8-.2.7zM204 113.3c2-5.1 6.9-8.6 14.5-10.5 6.6-1.9 13.6-1.6 20.1.7 6.4 2.5 9.3 6.5 8.6 12.2l-6.4 20c-2.6 7.9-5 15.9-7.4 24.2-4.7 14.7-8.3 29.7-10.8 44.9-2.3 14-6.2 21.6-11.7 22.7l-4.4.7c-3.4.2-5.6 1.1-6.5 2.8a9.01 9.01 0 01-4.7 3.9c-4.8 1.9-10.2 1.6-14.9-.7a18.5 18.5 0 01-6.8-5c-4.4-5.3-5.2-12.4-2.6-21.3 4-22.2 10.3-43.9 18.9-64.8 3.7-10.4 8.4-20.4 14.1-29.8zm44.2-35c-6.2 1.7-12.8 1.2-18.6-1.4-4.8-2.5-7.5-5.5-8.3-9s.3-7.1 3.3-10.9c3.4-4.7 8.6-7.7 15.4-9.1 3.1-.3 5.4-.5 6.8-.5 1.7.1 3.5.4 5.1.9 5.1.5 8.5 2.7 10.1 6.8 2.2 3.4 2.4 7.3.6 11.7S256 75 248.2 78.3zm63.4-38.6l.2-.9 2.1-2.1c1.7-4.1 3.6-6.5 5.6-7.2l4.2-1.2c2.4-.8 4.7-2 6.8-3.5 1.1-2.2 3.3-3.2 6.8-2.9 3.6.3 7.1 1.4 10.2 3.3 3.4 2 6.2 4.8 8.2 8.1 2.1 3.1 2.6 7 1.5 10.6-1.3 4.5-2.9 8.9-4.8 13.2l-2.6 5.3-3.9 7.8-7.7 16.1c-.8 2-1.4 3.2-2 3.5-.6.4-1.1 1-1.5 1.6l3.5-.7 2.8-.5 7.5-.9c1.5.3 2.9.5 4.4.5h3.3c2.3.1 4.6.6 6.8 1.5 2.5.8 4.4 2.8 5.1 5.3.8 2.5.9 5.1.2 7.6-.7 2.6-1.9 5.1-3.7 7.1a9.62 9.62 0 01-7.2 3.5c-9.5 2.9-19.2 5-29 6.1l-1.4 1.6v.2c-1.6 3.7-3.2 8.5-5 14.1l-5.8 18.5-6.4 20.6c-2.2 7.1-4.4 13.9-6.8 20.5-7.5 22-12.9 33.9-16.4 35.8-1.2.6-2.5 1.1-3.9 1.3-1.3.2-2.1.4-2.2.6-4.7-.1-9.4-1.2-13.6-3.3-3.6-1.9-6-3.7-7.2-5.4a6.33 6.33 0 01-.9-5.8c3-27.1 8.9-56.8 17.8-89.1-3.1 0-5.3.3-6.5.9-2.6 1.3-5.5 2-8.4 2.1h-.2c-2.6-.2-5.1-1.5-6.8-3.5-4.1-4.3-5-10.8-2.3-16.1 1.4-3 4.2-5.3 8.4-7 5-1.4 8.6-2.6 11-3.5 5.3-2.4 10.8-4.2 16.4-5.5l.8-.6c1.1-.4 2.3-.6 3.5-.5l2.8-13.8c.9-4.8 2.1-9.6 3.5-14.3 2.6-10.3 6.9-20.1 12.8-29z" fill="#fff"/></svg>
